# xmcd CD database file
#
# Track frame offsets:
#	150
#	41010
#	104647
#	113880
#	132748
#	141783
#	160061
#	190943
#
# Disc length: 2791 seconds
#
# Revision: 0
# Processed by: cddbd v1.5.2PL0 Copyright (c) Steve Scherf et al.
# Submitted via: CDex 1.70beta2
#
DISCID=750ae508
DTITLE=The Keith Tippett Group - You Are Here... I Am There
DYEAR=2000
DGENRE=Jazz
TTITLE0=This Evening Was Like Last Year (To Sarah)
TTITLE1=I Wish There Was a Nowhere
TTITLE2=Thank You for the Smile (To Wendy and Roger)
TTITLE3=Three Minutes from an Afternoon in July (To Nick)
TTITLE4=View from Battery Point (To John and Pete)
TTITLE5=Violence
TTITLE6=Stately Dance for Miss Primm
TTITLE7=This Eveing Was Like Last Year
EXTD=YEAR: 2000
EXTT0=
EXTT1=
EXTT2=
EXTT3=
EXTT4=
EXTT5=
EXTT6=
EXTT7=
PLAYORDER=
